<mxfile host="app.diagrams.net" modified="2023-08-01T12:58:22.916Z" agent="Mozilla/5.0 (Windows NT 10.0; Win64; x64) AppleWebKit/537.36 (KHTML, like Gecko) Chrome/115.0.0.0 Safari/537.36" etag="Zga6OSP_Tg6EDQQx8vN7" version="21.5.2" type="github">
  <diagram name="第 1 页" id="-WIHNXKfvVTFxInO3pld">
    <mxGraphModel dx="840" dy="442" grid="1" gridSize="10" guides="1" tooltips="1" connect="1" arrows="1" fold="1" page="1" pageScale="1" pageWidth="827" pageHeight="1169" math="0" shadow="0">
      <root>
        <mxCell id="0" />
        <mxCell id="1" parent="0" />
        <mxCell id="56JrZKF8dLIHz-Fe0dgc-27" style="edgeStyle=none;rounded=0;orthogonalLoop=1;jettySize=auto;html=1;exitX=1;exitY=0.5;exitDx=0;exitDy=0;entryX=0;entryY=0.5;entryDx=0;entryDy=0;" edge="1" parent="1" source="56JrZKF8dLIHz-Fe0dgc-28" target="56JrZKF8dLIHz-Fe0dgc-30">
          <mxGeometry relative="1" as="geometry" />
        </mxCell>
        <mxCell id="56JrZKF8dLIHz-Fe0dgc-28" value="报警" style="rounded=0;whiteSpace=wrap;html=1;" vertex="1" parent="1">
          <mxGeometry x="110" y="100" width="40" height="20" as="geometry" />
        </mxCell>
        <mxCell id="56JrZKF8dLIHz-Fe0dgc-29" style="edgeStyle=none;rounded=0;orthogonalLoop=1;jettySize=auto;html=1;exitX=1;exitY=0.5;exitDx=0;exitDy=0;entryX=0;entryY=0.5;entryDx=0;entryDy=0;" edge="1" parent="1" source="56JrZKF8dLIHz-Fe0dgc-30" target="56JrZKF8dLIHz-Fe0dgc-39">
          <mxGeometry relative="1" as="geometry" />
        </mxCell>
        <mxCell id="56JrZKF8dLIHz-Fe0dgc-30" value="事件" style="rounded=0;whiteSpace=wrap;html=1;" vertex="1" parent="1">
          <mxGeometry x="380" y="100" width="40" height="20" as="geometry" />
        </mxCell>
        <mxCell id="56JrZKF8dLIHz-Fe0dgc-39" value="故障" style="rounded=0;whiteSpace=wrap;html=1;" vertex="1" parent="1">
          <mxGeometry x="630" y="100" width="40" height="20" as="geometry" />
        </mxCell>
        <mxCell id="56JrZKF8dLIHz-Fe0dgc-43" value="事件流转" style="ellipse;whiteSpace=wrap;html=1;aspect=fixed;" vertex="1" parent="1">
          <mxGeometry x="330" y="180" width="60" height="60" as="geometry" />
        </mxCell>
        <mxCell id="56JrZKF8dLIHz-Fe0dgc-44" value="事件分级" style="ellipse;whiteSpace=wrap;html=1;aspect=fixed;" vertex="1" parent="1">
          <mxGeometry x="414" y="180" width="60" height="60" as="geometry" />
        </mxCell>
        <mxCell id="56JrZKF8dLIHz-Fe0dgc-45" value="动态记录" style="ellipse;whiteSpace=wrap;html=1;aspect=fixed;" vertex="1" parent="1">
          <mxGeometry x="330" y="252.5" width="65" height="65" as="geometry" />
        </mxCell>
        <mxCell id="56JrZKF8dLIHz-Fe0dgc-46" value="" style="group" vertex="1" connectable="0" parent="1">
          <mxGeometry x="610" y="170" width="250.00000000000006" height="230" as="geometry" />
        </mxCell>
        <mxCell id="56JrZKF8dLIHz-Fe0dgc-33" value="" style="rounded=0;whiteSpace=wrap;html=1;movable=1;resizable=1;rotatable=1;deletable=1;editable=1;locked=0;connectable=1;container=0;fontSize=10;" vertex="1" parent="56JrZKF8dLIHz-Fe0dgc-46">
          <mxGeometry width="250" height="230" as="geometry" />
        </mxCell>
        <mxCell id="56JrZKF8dLIHz-Fe0dgc-34" value="故障应急" style="ellipse;whiteSpace=wrap;html=1;aspect=fixed;fontSize=9;" vertex="1" parent="56JrZKF8dLIHz-Fe0dgc-46">
          <mxGeometry x="100.80000000000013" y="10" width="48.4" height="48.4" as="geometry" />
        </mxCell>
        <mxCell id="56JrZKF8dLIHz-Fe0dgc-35" value="故障跟踪" style="ellipse;whiteSpace=wrap;html=1;aspect=fixed;" vertex="1" parent="56JrZKF8dLIHz-Fe0dgc-46">
          <mxGeometry x="188.79000000000002" y="10" width="48.04" height="48.04" as="geometry" />
        </mxCell>
        <mxCell id="56JrZKF8dLIHz-Fe0dgc-36" value="故障复盘" style="ellipse;whiteSpace=wrap;html=1;aspect=fixed;" vertex="1" parent="56JrZKF8dLIHz-Fe0dgc-46">
          <mxGeometry x="22.810000000000002" y="82.00999999999999" width="45.98" height="45.98" as="geometry" />
        </mxCell>
        <mxCell id="56JrZKF8dLIHz-Fe0dgc-37" value="&lt;font style=&quot;font-size: 11px;&quot;&gt;故障改进&lt;/font&gt;" style="ellipse;whiteSpace=wrap;html=1;aspect=fixed;" vertex="1" parent="56JrZKF8dLIHz-Fe0dgc-46">
          <mxGeometry x="18.79000000000002" y="10" width="50" height="50" as="geometry" />
        </mxCell>
        <mxCell id="56JrZKF8dLIHz-Fe0dgc-40" style="edgeStyle=none;rounded=0;orthogonalLoop=1;jettySize=auto;html=1;exitX=1;exitY=0;exitDx=0;exitDy=0;" edge="1" parent="56JrZKF8dLIHz-Fe0dgc-46" source="56JrZKF8dLIHz-Fe0dgc-33" target="56JrZKF8dLIHz-Fe0dgc-33">
          <mxGeometry relative="1" as="geometry" />
        </mxCell>
      </root>
    </mxGraphModel>
  </diagram>
</mxfile>
